<?xml version="1.0" standalone="no"?>
<!DOCTYPE svg PUBLIC "-//W3C//DTD SVG 20010904//EN"
 "http://www.w3.org/TR/2001/REC-SVG-20010904/DTD/svg10.dtd">
<svg version="1.0" xmlns="http://www.w3.org/2000/svg"
 width="260.000000pt" height="260.000000pt" viewBox="0 0 260.000000 260.000000"
 preserveAspectRatio="xMidYMid meet">
<metadata>
Created by potrace 1.11, written by Peter Selinger 2001-2013
</metadata>
<g transform="translate(0.000000,260.000000) scale(0.100000,-0.100000)"
fill="#000000" stroke="none">
<path d="M106 2590 c-37 -12 -75 -47 -92 -87 -12 -27 -14 -233 -14 -1200 0
-762 4 -1181 10 -1205 6 -20 26 -50 46 -67 l35 -31 1216 0 1215 0 39 39 39 39
0 1215 0 1215 -27 33 c-53 62 18 59 -1265 58 -645 0 -1186 -5 -1202 -9z m902
-428 c9 -6 12 -33 10 -98 l-3 -89 -225 -5 c-238 -5 -244 -7 -293 -57 -38 -41
-47 -80 -47 -208 0 -128 9 -167 47 -208 40 -42 64 -49 198 -57 146 -8 199 -28
268 -102 74 -79 91 -147 91 -368 0 -195 -11 -250 -63 -332 -36 -56 -92 -99
-170 -130 -51 -20 -75 -23 -298 -26 l-243 -4 0 91 0 91 188 0 c225 0 271 10
325 69 20 22 39 55 42 74 4 19 5 108 3 198 -2 133 -6 168 -20 187 -34 49 -56
56 -188 63 -103 5 -135 11 -180 31 -81 38 -135 89 -172 166 -31 65 -32 72 -36
222 -5 180 8 253 60 334 56 86 178 147 323 159 85 8 371 6 383 -1z m1310 0 c9
-6 12 -33 10 -98 l-3 -89 -220 -5 c-248 -6 -260 -9 -309 -83 l-26 -41 0 -524
c0 -510 1 -525 21 -561 25 -46 76 -81 132 -92 23 -4 124 -8 225 -9 l182 0 0
-90 0 -90 -224 0 c-194 0 -232 3 -287 20 -125 38 -196 103 -239 216 -19 53
-20 76 -20 607 l0 552 23 56 c57 137 158 206 337 229 78 10 382 11 398 2z"/>
</g>
</svg>
